<?xml version="1.0" standalone="no"?>
<!DOCTYPE svg PUBLIC "-//W3C//DTD SVG 20010904//EN"
 "http://www.w3.org/TR/2001/REC-SVG-20010904/DTD/svg10.dtd">
<svg version="1.0" xmlns="http://www.w3.org/2000/svg"
 width="2000.000000pt" height="1500.000000pt" viewBox="0 0 2000.000000 1500.000000"
 preserveAspectRatio="xMidYMid meet">

<g transform="translate(0.000000,1500.000000) scale(0.100000,-0.100000)"
fill="#000000" stroke="none">
<path d="M0 7500 l0 -7500 10000 0 10000 0 0 7500 0 7500 -10000 0 -10000 0 0
-7500z m8180 3065 l0 -45 -60 0 -60 0 0 -345 0 -345 270 0 270 0 0 345 0 345
-55 0 -55 0 0 45 0 45 315 0 315 0 0 -45 0 -45 -55 0 -55 0 0 -725 0 -725 55
0 55 0 0 -45 0 -45 -315 0 -315 0 0 45 0 45 55 0 55 0 0 335 0 335 -270 0
-270 0 0 -335 0 -335 60 0 60 0 0 -45 0 -45 -320 0 -320 0 0 45 0 45 60 0 60
0 0 725 0 725 -60 0 -60 0 0 45 0 45 320 0 320 0 0 -45z m1700 0 l0 -45 -55 0
-55 0 0 -488 c0 -406 3 -498 15 -547 33 -126 100 -207 204 -246 74 -28 217
-23 304 10 l57 22 0 625 0 624 -61 0 -60 0 3 43 3 42 318 3 317 2 0 -45 0 -45
-60 0 -60 0 0 -770 0 -770 -37 0 c-29 0 -66 19 -190 101 l-154 101 -52 -49
c-140 -131 -273 -187 -449 -185 -249 2 -411 128 -484 377 -16 53 -18 125 -23
625 l-6 565 -57 3 -58 3 0 44 0 45 320 0 320 0 0 -45z m1770 0 l0 -45 -55 0
c-30 0 -55 -3 -55 -7 0 -14 294 -683 300 -683 6 0 220 666 220 683 0 4 -27 7
-60 7 l-60 0 0 45 0 45 265 0 265 0 0 -44 0 -45 -51 -3 -51 -3 -229 -417 -229
-417 0 -305 0 -305 58 -3 57 -3 3 -42 3 -43 -320 0 -321 0 0 45 0 45 55 0 55
0 0 289 0 288 -228 434 -229 434 -51 3 -52 3 0 45 0 44 355 0 355 0 0 -45z
m-3771 -2225 c117 -28 231 -90 312 -170 107 -105 111 -88 -58 -229 -80 -68
-149 -119 -154 -114 -4 4 -56 85 -114 178 -59 94 -124 196 -144 228 -20 31
-41 57 -47 57 -21 0 -129 -77 -167 -119 -81 -90 -142 -207 -180 -346 -18 -68
-22 -106 -22 -250 0 -147 3 -181 23 -250 76 -264 248 -405 493 -405 l59 0 0
270 0 270 -60 0 -60 0 0 45 0 45 305 0 305 0 0 -45 0 -45 -50 0 -50 0 0 -375
0 -375 -43 0 c-35 0 -57 10 -124 55 -46 30 -87 55 -93 55 -6 0 -26 -11 -43
-24 -18 -14 -66 -41 -107 -60 -256 -122 -576 -68 -775 129 -237 235 -288 665
-124 1048 37 89 127 224 176 268 74 64 295 153 428 172 87 12 234 6 314 -13z
m-1780 -552 c229 -356 347 -530 349 -517 4 20 -44 823 -54 916 l-5 51 -70 7
-69 7 0 39 0 39 235 0 235 0 0 -39 0 -39 -60 -7 c-33 -4 -60 -8 -60 -8 0 -1
-14 -324 -30 -717 -16 -393 -30 -736 -30 -762 l0 -48 -149 0 -150 0 -433 681
c-238 375 -434 677 -435 672 -3 -9 69 -1055 83 -1205 l6 -68 69 0 69 0 0 -40
0 -40 -245 0 -245 0 0 40 0 40 60 0 60 0 0 55 c0 76 28 1057 35 1241 l6 152
-60 7 -61 7 0 39 0 39 301 -2 301 -3 347 -537z m3021 503 l0 -39 -60 -7 -60
-7 0 -456 c0 -472 5 -540 42 -640 29 -77 104 -152 178 -178 79 -27 204 -24
295 7 l70 24 3 621 2 621 -60 7 -60 7 0 39 0 40 320 0 320 0 0 -39 0 -39 -60
-7 -60 -7 0 -764 0 -764 -42 0 c-36 0 -63 14 -193 98 l-151 99 -69 -64 c-133
-122 -299 -183 -465 -170 -276 22 -431 187 -469 502 -7 54 -11 285 -11 577 l0
486 -60 7 -60 7 0 39 0 39 325 0 325 0 0 -39z m1770 0 l0 -38 -59 -9 -59 -9
151 -343 c82 -188 152 -340 155 -338 3 3 53 157 112 343 l108 338 -59 9 -59 9
0 38 0 39 265 0 265 0 0 -39 0 -40 -54 -6 -54 -7 -231 -421 -231 -422 0 -302
0 -303 60 0 60 0 0 -40 0 -40 -320 0 -320 0 0 40 0 40 60 0 60 0 0 288 -1 287
-229 435 -229 435 -50 8 -51 9 0 39 0 39 355 0 355 0 0 -39z m2090 -196 l0
-235 -44 0 c-41 0 -44 2 -50 31 -3 17 -6 46 -6 63 0 30 -6 36 -97 88 -154 88
-424 218 -454 218 -10 0 -12 -498 -2 -602 l6 -68 223 0 224 0 0 -45 0 -45
-225 0 -225 0 0 -360 c0 -202 4 -360 9 -360 32 0 341 144 508 237 l82 46 3 61
3 61 48 3 47 3 0 -240 0 -241 -615 0 -615 0 0 40 0 40 60 0 60 0 0 724 0 724
-60 7 -60 7 0 39 0 39 590 0 590 0 0 -235z m1186 -306 c192 -297 350 -534 352
-525 3 14 -42 779 -54 907 l-6 67 -69 6 -69 7 0 40 0 39 235 0 235 0 0 -39 0
-39 -59 -7 -59 -7 -6 -81 c-8 -103 -56 -1311 -56 -1390 l0 -58 -152 3 -151 3
-431 678 c-237 373 -432 672 -434 664 -3 -14 73 -1120 84 -1214 l5 -53 70 0
69 0 0 -40 0 -40 -245 0 -245 0 0 40 0 40 55 0 c36 0 57 4 60 13 2 6 11 289
19 627 9 338 19 658 22 711 l5 97 -60 7 -61 7 0 39 0 39 299 0 299 0 348 -541z
m-10452 -1791 c9 -12 16 -41 16 -64 0 -81 -78 -137 -262 -189 -54 -15 -102
-33 -107 -39 -5 -6 -53 -90 -106 -186 -54 -96 -110 -193 -126 -216 l-28 -41
18 -59 c29 -93 58 -152 80 -164 25 -13 28 -50 5 -50 -28 0 -72 33 -88 64 -8
17 -26 57 -40 90 l-26 58 -50 -45 c-67 -60 -161 -107 -215 -107 -32 0 -47 6
-67 28 -51 53 -74 210 -46 306 16 53 81 118 134 134 23 6 65 12 94 12 49 0 56
-3 95 -42 26 -26 50 -64 61 -95 10 -29 22 -53 25 -53 11 0 61 82 136 224 40
77 73 141 73 142 0 1 -30 4 -66 8 -71 7 -126 26 -158 54 -47 42 -74 165 -41
192 22 18 33 5 45 -53 22 -108 71 -147 182 -147 34 0 68 4 73 8 6 4 39 42 73
84 96 118 171 168 254 168 37 0 50 -5 62 -22z m12306 7 c7 -8 14 -34 17 -58 9
-86 -56 -138 -241 -195 -61 -18 -118 -41 -128 -50 -9 -9 -53 -84 -98 -167 -45
-82 -100 -178 -122 -212 l-40 -62 22 -67 c27 -84 52 -133 79 -158 33 -30 28
-50 -11 -42 -41 8 -70 36 -87 83 -8 21 -22 57 -32 81 l-19 43 -67 -56 c-96
-79 -200 -114 -254 -85 -47 26 -88 190 -70 285 22 116 108 185 230 185 77 0
112 -28 156 -123 l32 -69 26 33 c26 35 177 315 177 329 0 4 -27 10 -60 13
-142 15 -210 79 -210 197 0 36 4 52 15 57 21 8 24 3 41 -64 29 -111 69 -143
181 -143 l72 0 70 83 c81 97 120 133 176 158 49 23 128 25 145 4z m-8014 -132
c19 -7 18 -39 -2 -47 -9 -3 -82 -6 -163 -6 l-147 0 -13 -117 c-17 -166 -31
-398 -31 -533 0 -125 -11 -163 -48 -168 -21 -3 -22 -1 -21 90 0 51 13 237 28
413 15 176 28 321 27 321 -1 1 -66 7 -146 14 -168 13 -180 16 -180 37 0 15 33
15 341 9 187 -4 347 -10 355 -13z m4594 -30 c12 -15 24 -40 27 -55 3 -16 7
-28 9 -28 2 0 25 16 51 36 61 47 102 64 151 64 82 0 117 -60 135 -232 11 -105
19 -128 32 -88 13 41 105 168 158 218 71 66 145 102 213 102 131 0 150 -93
109 -522 -13 -142 -22 -265 -18 -274 10 -27 115 -13 190 25 71 35 96 39 91 14
-8 -41 -186 -107 -269 -101 -32 2 -47 10 -62 31 l-21 27 22 268 c13 147 23
304 22 350 0 75 -2 85 -26 108 -29 30 -46 28 -142 -16 -90 -42 -161 -118 -217
-233 -49 -101 -74 -192 -100 -365 -20 -135 -30 -169 -56 -177 -48 -15 -51 35
-12 192 35 143 42 336 19 473 -25 144 -51 169 -134 129 -25 -13 -70 -46 -98
-73 l-51 -51 -22 -130 c-31 -187 -56 -281 -107 -403 -45 -108 -63 -132 -96
-132 -15 0 -18 9 -18 63 0 138 57 353 136 509 64 128 71 238 14 238 -10 0 -76
-27 -146 -60 -133 -63 -163 -70 -188 -44 -33 33 -9 54 53 48 34 -4 55 0 81 14
215 116 233 121 270 75z m-4396 -5 c22 -31 20 -135 -3 -223 -10 -38 -46 -125
-80 -193 -34 -68 -59 -127 -56 -133 4 -5 22 4 42 21 28 25 42 30 71 28 55 -4
72 -45 72 -170 0 -122 7 -132 82 -114 96 23 141 58 165 131 8 24 15 30 36 28
24 -2 28 4 44 55 9 31 16 68 15 82 -3 33 17 80 34 80 25 0 145 -48 165 -66 23
-21 24 -51 3 -161 -8 -46 -14 -98 -12 -116 3 -27 7 -32 27 -29 38 4 144 58
209 107 33 25 64 45 68 45 5 0 24 29 43 65 42 81 97 130 162 144 53 12 81 5
129 -29 34 -24 84 -25 162 -4 62 18 84 12 73 -18 -4 -11 -34 -22 -83 -33 -42
-9 -82 -18 -89 -20 -6 -2 -14 -23 -18 -47 -24 -142 -149 -259 -291 -274 -53
-6 -61 -4 -79 16 -15 17 -20 35 -19 76 2 54 1 54 -20 41 -124 -81 -221 -126
-273 -127 -66 0 -82 80 -38 188 14 34 25 68 25 75 0 14 -106 70 -119 63 -8 -6
-30 -56 -56 -131 -32 -90 -136 -167 -263 -194 -120 -25 -124 -21 -133 126 -4
65 -10 126 -14 136 -26 64 -152 -67 -170 -178 -13 -82 -14 -85 -40 -85 -13 0
-26 3 -29 8 -2 4 11 91 29 193 19 102 39 226 45 275 31 249 42 293 86 351 31
40 74 45 98 11z m3102 -13 c33 -79 1 -223 -90 -402 -62 -124 -72 -161 -33
-126 32 30 62 43 96 43 47 0 63 -41 62 -157 -1 -51 3 -102 9 -113 13 -25 58
-26 122 -5 52 18 88 53 115 110 25 54 47 53 51 -3 3 -40 -1 -47 -40 -86 -49
-49 -130 -83 -217 -92 -77 -9 -82 -1 -90 143 -4 65 -10 124 -14 131 -15 22
-42 12 -84 -30 -49 -51 -83 -116 -83 -157 0 -51 -17 -81 -45 -81 -22 0 -25 4
-25 36 0 29 -3 34 -17 30 -10 -2 -45 -10 -78 -16 -60 -12 -197 -69 -208 -87
-3 -5 -13 -84 -22 -174 -16 -171 -37 -254 -81 -318 -30 -44 -71 -71 -111 -71
-29 0 -33 4 -44 43 -34 124 43 380 148 497 46 51 61 92 62 172 l1 27 -52 -24
c-109 -49 -168 -42 -195 22 -14 35 -14 42 2 93 37 117 100 217 156 245 66 35
198 -3 237 -67 15 -26 14 -30 -22 -104 -44 -89 -66 -161 -66 -222 l0 -43 28
15 c55 28 129 48 201 55 l75 6 22 120 c13 66 30 179 39 250 21 179 34 243 55
290 25 57 55 85 91 85 25 0 33 -6 45 -35z m-6411 -176 c12 -36 -5 -130 -36
-203 -16 -39 -27 -71 -25 -73 2 -2 15 1 30 7 43 16 81 12 111 -12 24 -19 27
-26 23 -69 -3 -32 -14 -60 -33 -85 -24 -31 -48 -49 -131 -100 -18 -11 -18 -12
-1 -32 10 -11 29 -23 43 -26 34 -9 150 11 194 34 41 21 95 96 111 155 6 20 19
57 30 81 15 37 23 45 41 42 34 -5 34 -44 -1 -146 -55 -158 -38 -199 65 -156
53 22 171 102 178 121 9 22 50 12 54 -13 2 -17 -14 -34 -79 -79 -92 -65 -146
-91 -206 -101 -53 -8 -80 7 -94 56 l-12 39 -37 -30 c-49 -39 -117 -59 -204
-59 -87 0 -126 20 -152 79 -10 23 -22 41 -26 41 -5 0 -23 -29 -39 -65 -26 -54
-35 -65 -55 -65 -21 0 -24 5 -24 33 1 34 5 45 69 201 23 55 55 152 71 215 40
153 76 231 106 231 14 0 25 -8 29 -21z m401 -80 c3 -6 -3 -20 -14 -31 -24 -24
-42 -16 -42 18 0 19 5 24 24 24 14 0 28 -5 32 -11z m1199 -98 c23 -10 53 -33
68 -50 30 -36 32 -27 -32 -161 -27 -58 -60 -204 -48 -216 2 -2 28 7 58 21 71
33 143 47 221 43 55 -3 63 -5 63 -23 0 -17 -7 -20 -50 -21 -95 -4 -277 -68
-301 -105 -4 -7 -15 -89 -24 -183 -21 -203 -42 -270 -105 -333 -34 -35 -49
-43 -79 -43 -46 0 -56 22 -56 123 0 134 77 340 159 423 35 35 42 50 51 109 6
37 8 70 5 73 -3 3 -31 -5 -62 -18 -31 -13 -76 -24 -101 -24 -38 -1 -48 3 -71
31 l-27 33 -34 -35 c-46 -47 -166 -105 -233 -112 -49 -5 -56 -3 -71 18 -22 32
-20 65 9 210 14 68 23 129 21 136 -15 38 -97 -39 -141 -132 -20 -43 -63 -202
-65 -242 0 -2 -13 -3 -30 -3 -36 0 -38 12 -15 140 8 47 20 125 25 175 15 126
18 137 44 133 17 -2 22 -12 26 -53 l5 -50 45 41 c73 67 116 80 152 47 23 -21
23 -65 -2 -173 -11 -47 -20 -109 -20 -137 0 -51 1 -53 28 -53 43 0 137 50 206
110 53 46 68 67 94 130 69 167 168 225 287 171z m9501 -7 c11 -42 -2 -137 -24
-180 -11 -21 -46 -64 -76 -94 -41 -39 -56 -62 -56 -81 0 -57 59 -79 156 -59
75 15 125 43 164 92 34 42 60 49 60 18 0 -63 -70 -119 -189 -152 -161 -44
-256 -1 -252 114 2 63 46 237 73 291 35 70 131 104 144 51z m-6156 1 c17 -20
-8 -76 -68 -158 -24 -33 -50 -78 -58 -101 -16 -43 -21 -127 -9 -145 26 -43
173 49 276 174 30 36 57 85 74 131 21 57 31 74 46 74 32 0 33 -27 5 -118 -29
-96 -36 -211 -13 -230 28 -24 178 33 276 103 36 27 51 25 51 -6 0 -43 -247
-159 -341 -159 -36 0 -60 31 -66 85 -3 25 -8 45 -11 45 -2 0 -45 -31 -96 -69
-137 -105 -191 -122 -243 -77 -26 23 -28 29 -26 98 2 112 42 205 140 326 38
46 45 49 63 27z m6488 -78 l3 -48 60 51 c67 56 105 64 139 30 25 -25 25 -34
-5 -168 -14 -61 -25 -129 -25 -151 0 -36 3 -41 24 -41 54 0 193 71 180 92 -9
14 36 58 58 58 11 0 23 11 28 25 8 21 16 25 43 23 28 -1 47 10 125 75 51 42
94 77 97 77 18 0 35 -16 35 -34 0 -12 -9 -62 -20 -112 -11 -49 -20 -106 -20
-127 0 -36 1 -37 28 -31 43 10 149 61 197 95 42 30 65 32 65 4 0 -30 -123
-106 -245 -150 -27 -10 -62 -29 -77 -43 l-27 -24 -35 22 c-20 12 -62 50 -94
86 l-58 64 -44 -42 c-91 -84 -275 -146 -307 -103 -18 26 -16 97 7 210 20 96
25 155 15 155 -22 0 -69 -37 -95 -75 -44 -64 -69 -128 -88 -225 -15 -76 -19
-85 -41 -88 -41 -6 -43 8 -22 134 10 65 25 163 31 217 13 97 13 98 39 95 23
-3 26 -8 29 -51z m-12516 7 c44 -29 88 -31 170 -8 42 12 62 14 70 6 20 -20 -1
-40 -54 -51 -125 -27 -125 -27 -132 -73 -23 -145 -145 -259 -292 -274 -59 -6
-63 -6 -80 21 -38 58 -11 193 59 296 43 64 83 96 140 110 42 10 74 3 119 -27z
m560 10 c15 -8 30 -18 33 -24 10 -16 92 -12 152 7 39 12 56 14 64 6 21 -21 1
-41 -53 -53 -129 -29 -128 -29 -128 -59 0 -88 -87 -208 -185 -256 -31 -16 -79
-29 -113 -32 -57 -5 -61 -4 -77 21 -28 43 -15 152 29 241 75 151 172 203 278
149z m9592 0 c24 -9 19 -38 -19 -115 -35 -68 -72 -186 -62 -196 19 -18 153 92
232 191 49 62 65 75 85 73 19 -1 26 -8 28 -30 3 -23 -15 -100 -34 -152 -10
-24 24 -19 141 25 74 27 112 37 119 30 16 -16 -3 -28 -150 -89 l-138 -58 -56
-211 c-38 -141 -65 -223 -83 -250 -39 -60 -90 -94 -146 -100 -42 -4 -50 -1
-78 26 -63 63 -68 177 -13 288 38 78 130 165 242 231 77 46 82 52 99 101 10
29 15 52 12 52 -2 0 -38 -31 -79 -69 -90 -82 -161 -124 -207 -119 -31 3 -32 4
-35 56 -2 31 4 75 14 105 24 75 96 217 109 217 2 0 10 -3 19 -6z"/>
<path d="M3592 5955 c-17 -8 -49 -27 -69 -42 -46 -36 -119 -126 -104 -131 13
-4 133 34 181 58 53 27 82 63 78 96 -4 35 -35 42 -86 19z"/>
<path d="M2836 5469 c-91 -22 -133 -91 -123 -203 6 -67 29 -135 50 -148 42
-27 113 4 206 89 l64 59 -12 49 c-22 89 -87 168 -134 164 -7 -1 -29 -5 -51
-10z"/>
<path d="M15882 5944 c-47 -23 -162 -133 -162 -155 0 -14 11 -12 104 20 128
43 192 103 156 146 -18 21 -39 19 -98 -11z"/>
<path d="M15148 5471 c-48 -10 -84 -35 -109 -74 -17 -27 -20 -45 -17 -117 5
-109 29 -164 73 -168 47 -5 108 28 179 95 l64 61 -9 42 c-19 85 -69 154 -119
163 -14 3 -41 2 -62 -2z"/>
<path d="M12503 5425 c-16 -39 -43 -148 -43 -171 0 -16 2 -17 10 -4 21 32 51
141 48 172 l-3 33 -12 -30z"/>
<path d="M8142 5777 c-35 -42 -52 -104 -52 -194 0 -59 4 -93 11 -93 17 0 47
82 64 175 19 108 9 152 -23 112z"/>
<path d="M9216 5261 c-63 -64 -76 -92 -76 -162 0 -49 0 -49 33 -49 78 0 186
81 226 170 25 56 26 80 4 81 -10 0 -44 4 -75 8 l-58 7 -54 -55z"/>
<path d="M11234 5768 c-35 -40 -46 -80 -52 -182 -4 -81 -2 -98 9 -94 32 10 79
165 79 259 0 45 -8 48 -36 17z"/>
<path d="M10645 5411 c-62 -37 -165 -182 -165 -231 0 -21 28 -40 60 -40 74 0
150 62 201 162 35 70 35 73 4 103 -29 30 -59 32 -100 6z"/>
<path d="M10628 4850 c-45 -74 -68 -135 -89 -232 -19 -87 -19 -158 0 -158 15
0 50 46 70 91 27 60 53 213 49 286 l-3 58 -27 -45z"/>
<path d="M4839 5294 c-63 -53 -72 -67 -57 -98 17 -39 52 -34 99 17 46 48 73
93 64 107 -14 22 -64 9 -106 -26z"/>
<path d="M6372 5403 c-65 -45 -152 -170 -152 -221 0 -39 55 -55 114 -32 40 15
103 78 135 134 44 78 45 89 15 119 -34 34 -61 34 -112 0z"/>
<path d="M6362 4845 c-40 -61 -66 -130 -86 -228 -19 -91 -20 -143 -4 -153 18
-12 64 51 86 119 22 68 46 235 40 282 l-3 30 -33 -50z"/>
<path d="M15923 5388 c-27 -30 -49 -75 -57 -118 l-7 -35 35 37 c32 33 62 105
54 129 -2 6 -13 0 -25 -13z"/>
<path d="M16975 5276 c-106 -81 -98 -71 -80 -106 20 -39 51 -70 69 -70 9 0 18
22 25 68 7 37 17 82 22 100 6 18 9 35 7 37 -1 1 -21 -11 -43 -29z"/>
<path d="M3614 5259 c-57 -58 -73 -95 -74 -171 0 -37 1 -38 35 -38 50 0 123
40 174 95 64 69 93 154 54 156 -10 0 -44 4 -75 8 l-58 7 -56 -57z"/>
<path d="M4185 5258 c-30 -33 -57 -69 -59 -81 -11 -52 -15 -99 -9 -113 12 -33
104 -9 174 47 46 37 99 122 99 161 0 24 -4 27 -42 32 -116 14 -104 18 -163
-46z"/>
<path d="M14040 5023 c-66 -33 -158 -130 -196 -209 -33 -66 -36 -79 -32 -135
4 -52 9 -66 31 -85 60 -51 145 28 184 171 13 48 63 264 63 271 0 8 -16 3 -50
-13z"/>
</g>
</svg>
